<?xml version="1.0" standalone="no"?>
<!DOCTYPE svg PUBLIC "-//W3C//DTD SVG 1.1//EN" "http://www.w3.org/Graphics/SVG/1.1/DTD/svg11.dtd" >
<svg xmlns="http://www.w3.org/2000/svg">
<metadata></metadata>
<defs>
<font id="m12_mach_bikerregular" horiz-adv-x="1024" >
<font-face units-per-em="2048" ascent="2048" descent="0" />
<missing-glyph horiz-adv-x="500" />
<glyph horiz-adv-x="0" />
<glyph horiz-adv-x="682" />
<glyph unicode=" " />
<glyph unicode="!" />
<glyph unicode="&#x22;" />
<glyph unicode="#" />
<glyph unicode="$" />
<glyph unicode="%" />
<glyph unicode="&#x26;" />
<glyph unicode="'" />
<glyph unicode="(" />
<glyph unicode=")" />
<glyph unicode="*" />
<glyph unicode="+" />
<glyph unicode="," />
<glyph unicode="-" />
<glyph unicode="." horiz-adv-x="640" d="M0 0v448h576v-448h-576z" />
<glyph unicode="/" />
<glyph unicode="0" horiz-adv-x="2048" d="M0 448v1088h64v64h64v64h64v64h64v64h64v64h64v64h64v64h1088v-64h64v-64h64v-64h64v-64h64v-64h64v-64h64v-64h64v-1088h-64v-64h-64v-64h-64v-64h-64v-64h-64v-64h-64v-64h-64v-64h-1088v64h-64v64h-64v64h-64v64h-64v64h-64v64h-64v64h-64zM704 448h576v1088h-576 v-1088z" />
<glyph unicode="1" horiz-adv-x="768" d="M0 0v1536h64v64h64v64h64v64h64v64h64v64h64v64h64v64h256v-1984h-704z" />
<glyph unicode="2" horiz-adv-x="2048" d="M0 0v768h64v64h64v64h64v64h64v64h64v64h64v64h64v64h832v320h-1280v448h1536v-64h64v-64h64v-64h64v-64h64v-64h64v-64h64v-64h64v-320h-64v-64h-64v-64h-64v-64h-64v-64h-64v-64h-64v-64h-64v-64h-832v-320h1280v-448h-1984z" />
<glyph unicode="3" horiz-adv-x="2048" d="M0 0v448h1280v320h-832v448h832v320h-1280v448h1536v-64h64v-64h64v-64h64v-64h64v-64h64v-64h64v-64h64v-128h-64v-64h-64v-64h-64v-64h-64v-64h-64v-64h-64v-64h-64v-64h64v-64h64v-64h64v-64h64v-64h64v-64h64v-64h64v-128h-64v-64h-64v-64h-64v-64h-64v-64h-64v-64 h-64v-64h-64v-64h-1536z" />
<glyph unicode="4" horiz-adv-x="2048" d="M0 768v1216h704v-768h576v768h704v-1984h-704v768h-1280z" />
<glyph unicode="5" horiz-adv-x="2048" d="M0 0v448h1280v320h-1280v1216h1984v-448h-1280v-320h832v-64h64v-64h64v-64h64v-64h64v-64h64v-64h64v-64h64v-320h-64v-64h-64v-64h-64v-64h-64v-64h-64v-64h-64v-64h-64v-64h-1536z" />
<glyph unicode="6" horiz-adv-x="2048" d="M0 448v1088h64v64h64v64h64v64h64v64h64v64h64v64h64v64h1536v-448h-1280v-320h832v-64h64v-64h64v-64h64v-64h64v-64h64v-64h64v-64h64v-320h-64v-64h-64v-64h-64v-64h-64v-64h-64v-64h-64v-64h-64v-64h-1088v64h-64v64h-64v64h-64v64h-64v64h-64v64h-64v64h-64z M704 448h576v320h-576v-320z" />
<glyph unicode="7" horiz-adv-x="2048" d="M0 1216v768h1984v-1984h-704v1536h-576v-320h-704z" />
<glyph unicode="8" horiz-adv-x="2048" d="M0 448v128h64v64h64v64h64v64h64v64h64v64h64v64h64v64h-64v64h-64v64h-64v64h-64v64h-64v64h-64v64h-64v128h64v64h64v64h64v64h64v64h64v64h64v64h64v64h1088v-64h64v-64h64v-64h64v-64h64v-64h64v-64h64v-64h64v-128h-64v-64h-64v-64h-64v-64h-64v-64h-64v-64h-64v-64 h-64v-64h64v-64h64v-64h64v-64h64v-64h64v-64h64v-64h64v-128h-64v-64h-64v-64h-64v-64h-64v-64h-64v-64h-64v-64h-64v-64h-1088v64h-64v64h-64v64h-64v64h-64v64h-64v64h-64v64h-64zM704 448h576v320h-576v-320zM704 1216h576v320h-576v-320z" />
<glyph unicode="9" horiz-adv-x="2048" d="M0 0v448h1280v320h-832v64h-64v64h-64v64h-64v64h-64v64h-64v64h-64v64h-64v320h64v64h64v64h64v64h64v64h64v64h64v64h64v64h1088v-64h64v-64h64v-64h64v-64h64v-64h64v-64h64v-64h64v-1088h-64v-64h-64v-64h-64v-64h-64v-64h-64v-64h-64v-64h-64v-64h-1536zM704 1216 h576v320h-576v-320z" />
<glyph unicode=":" />
<glyph unicode=";" />
<glyph unicode="&#x3c;" />
<glyph unicode="=" />
<glyph unicode="&#x3e;" />
<glyph unicode="?" />
<glyph unicode="@" />
<glyph unicode="A" horiz-adv-x="2048" d="M0 0v1536h64v64h64v64h64v64h64v64h64v64h64v64h64v64h1088v-64h64v-64h64v-64h64v-64h64v-64h64v-64h64v-64h64v-1536h-704v512h-576v-512h-704zM704 960h576v576h-576v-576z" />
<glyph unicode="B" horiz-adv-x="2048" d="M0 0v1984h1536v-64h64v-64h64v-64h64v-64h64v-64h64v-64h64v-64h64v-128h-64v-64h-64v-64h-64v-64h-64v-64h-64v-64h-64v-64h-64v-64h64v-64h64v-64h64v-64h64v-64h64v-64h64v-64h64v-128h-64v-64h-64v-64h-64v-64h-64v-64h-64v-64h-64v-64h-64v-64h-1536zM704 448h576 v320h-576v-320zM704 1216h576v320h-576v-320z" />
<glyph unicode="C" horiz-adv-x="2048" d="M0 448v1088h64v64h64v64h64v64h64v64h64v64h64v64h64v64h1536v-448h-1280v-1088h1280v-448h-1536v64h-64v64h-64v64h-64v64h-64v64h-64v64h-64v64h-64z" />
<glyph unicode="D" horiz-adv-x="2048" d="M0 0v1984h1536v-64h64v-64h64v-64h64v-64h64v-64h64v-64h64v-64h64v-1088h-64v-64h-64v-64h-64v-64h-64v-64h-64v-64h-64v-64h-64v-64h-1536zM704 448h576v1088h-576v-1088z" />
<glyph unicode="E" horiz-adv-x="2048" d="M0 0v1984h1984v-448h-1280v-320h832v-448h-832v-320h1280v-448h-1984z" />
<glyph unicode="F" horiz-adv-x="2048" d="M0 0v1984h1984v-448h-1280v-320h832v-448h-832v-768h-704z" />
<glyph unicode="G" horiz-adv-x="2048" d="M0 448v1088h64v64h64v64h64v64h64v64h64v64h64v64h64v64h1536v-448h-1280v-1088h576v320h-448v448h1152v-1216h-1536v64h-64v64h-64v64h-64v64h-64v64h-64v64h-64v64h-64z" />
<glyph unicode="H" horiz-adv-x="2048" d="M0 0v1984h704v-768h576v768h704v-1984h-704v768h-576v-768h-704z" />
<glyph unicode="I" d="M0 0v1984h960v-1984h-960z" />
<glyph unicode="J" horiz-adv-x="2048" d="M0 448v512h704v-512h576v1536h704v-1536h-64v-64h-64v-64h-64v-64h-64v-64h-64v-64h-64v-64h-64v-64h-1088v64h-64v64h-64v64h-64v64h-64v64h-64v64h-64v64h-64z" />
<glyph unicode="K" horiz-adv-x="2048" d="M0 0v1984h704v-768h576v768h704v-576h-64v-64h-64v-64h-64v-64h-64v-64h-64v-64h-64v-64h-64v-64h64v-64h64v-64h64v-64h64v-64h64v-64h64v-64h64v-576h-704v768h-576v-768h-704z" />
<glyph unicode="L" horiz-adv-x="2048" d="M0 0v1984h704v-1536h1280v-448h-1984z" />
<glyph unicode="M" horiz-adv-x="2048" d="M0 0v1984h512v-64h64v-64h64v-64h64v-64h64v-64h64v-64h64v-64h64v-64h64v64h64v64h64v64h64v64h64v64h64v64h64v64h64v64h512v-1984h-704v1216h-64v-64h-64v-64h-64v-64h-64v-64h-64v64h-64v64h-64v64h-64v64h-64v-1216h-704z" />
<glyph unicode="N" horiz-adv-x="2048" d="M0 0v1984h512v-64h64v-64h64v-64h64v-64h64v-64h64v-64h64v-64h64v-64h64v-64h64v-64h64v-64h64v-64h64v768h704v-1984h-704v704h-66v64h-64v64h-64v64h-64v64h-64v64h-64v64h-64v64h-64v64h-62v-1216h-704z" />
<glyph unicode="O" horiz-adv-x="2048" d="M0 448v1088h64v64h64v64h64v64h64v64h64v64h64v64h64v64h1088v-64h64v-64h64v-64h64v-64h64v-64h64v-64h64v-64h64v-1088h-64v-64h-64v-64h-64v-64h-64v-64h-64v-64h-64v-64h-64v-64h-1088v64h-64v64h-64v64h-64v64h-64v64h-64v64h-64v64h-64zM704 448h576v1088h-576 v-1088z" />
<glyph unicode="P" horiz-adv-x="2048" d="M0 0v1984h1536v-64h64v-64h64v-64h64v-64h64v-64h64v-64h64v-64h64v-576h-64v-64h-64v-64h-64v-64h-64v-64h-64v-64h-64v-64h-64v-64h-832v-512h-704zM704 960h576v576h-576v-576z" />
<glyph unicode="Q" horiz-adv-x="2176" d="M0 448v1088h64v64h64v64h64v64h64v64h64v64h64v64h64v64h1088v-64h64v-64h64v-64h64v-64h64v-64h64v-64h64v-64h64v-1088h128v-448h-1664v64h-64v64h-64v64h-64v64h-64v64h-64v64h-64v64h-64zM704 448h576v1088h-576v-1088z" />
<glyph unicode="R" horiz-adv-x="2048" d="M0 0v1984h1536v-64h64v-64h64v-64h64v-64h64v-64h64v-64h64v-64h64v-576h-64v-64h-64v-64h-64v-64h-64v-128h64v-64h64v-64h64v-64h64v-448h-512v64h-64v64h-64v64h-64v64h-64v64h-64v64h-64v64h-64v64h-320v-512h-704zM704 960h576v576h-576v-576z" />
<glyph unicode="S" horiz-adv-x="2048" d="M0 0v448h1280v320h-832v64h-64v64h-64v64h-64v64h-64v64h-64v64h-64v64h-64v320h64v64h64v64h64v64h64v64h64v64h64v64h64v64h1536v-448h-1280v-320h832v-64h64v-64h64v-64h64v-64h64v-64h64v-64h64v-64h64v-320h-64v-64h-64v-64h-64v-64h-64v-64h-64v-64h-64v-64h-64 v-64h-1536z" />
<glyph unicode="T" horiz-adv-x="2048" d="M0 1536v448h1984v-448h-640v-1536h-704v1536h-640z" />
<glyph unicode="U" horiz-adv-x="2048" d="M0 448v1536h704v-1536h576v1536h704v-1536h-64v-64h-64v-64h-64v-64h-64v-64h-64v-64h-64v-64h-64v-64h-1088v64h-64v64h-64v64h-64v64h-64v64h-64v64h-64v64h-64z" />
<glyph unicode="V" horiz-adv-x="2048" d="M0 0v1984h704v-1536h576v1536h704v-1536h-64v-64h-64v-64h-64v-64h-64v-64h-64v-64h-64v-64h-64v-64h-1536z" />
<glyph unicode="W" horiz-adv-x="2048" d="M0 0v1984h704v-1216h64v64h64v64h64v64h64v64h64v-64h64v-64h64v-64h64v-64h64v1216h704v-1984h-512v64h-64v64h-64v64h-64v64h-64v64h-64v64h-64v64h-64v64h-64v-64h-64v-64h-64v-64h-64v-64h-64v-64h-64v-64h-64v-64h-64v-64h-512z" />
<glyph unicode="X" horiz-adv-x="2048" d="M0 0v576h64v64h64v64h64v64h64v64h64v64h64v64h64v64h-64v64h-64v64h-64v64h-64v64h-64v64h-64v64h-64v576h704v-768h576v768h704v-576h-64v-64h-64v-64h-64v-64h-64v-64h-64v-64h-64v-64h-64v-64h64v-64h64v-64h64v-64h64v-64h64v-64h64v-64h64v-576h-704v768h-576v-768 h-704z" />
<glyph unicode="Y" horiz-adv-x="2048" d="M0 1408v576h704v-768h576v768h704v-576h-64v-64h-64v-64h-64v-64h-64v-64h-64v-64h-64v-64h-64v-64h-192v-960h-704v960h-192v64h-64v64h-64v64h-64v64h-64v64h-64v64h-64v64h-64z" />
<glyph unicode="Z" horiz-adv-x="2048" d="M0 0v448h64v64h64v64h64v64h64v64h64v64h64v64h64v64h64v64h64v64h64v64h64v64h64v64h64v64h64v64h64v64h64v64h64v64h-1088v448h1984v-448h-64v-64h-64v-64h-64v-64h-64v-64h-64v-64h-64v-64h-64v-64h-64v-64h-64v-64h-64v-64h-64v-64h-64v-64h-64v-64h-64v-64h-64v-64 h-64v-64h-64v-64h1088v-448h-1984z" />
<glyph unicode="[" />
<glyph unicode="\" />
<glyph unicode="]" />
<glyph unicode="^" />
<glyph unicode="_" />
<glyph unicode="`" />
<glyph unicode="a" horiz-adv-x="2048" d="M0 0v1536h64v64h64v64h64v64h64v64h64v64h64v64h64v64h1088v-64h64v-64h64v-64h64v-64h64v-64h64v-64h64v-64h64v-1536h-704v512h-576v-512h-704zM704 960h576v576h-576v-576z" />
<glyph unicode="b" horiz-adv-x="2048" d="M0 0v1984h1536v-64h64v-64h64v-64h64v-64h64v-64h64v-64h64v-64h64v-128h-64v-64h-64v-64h-64v-64h-64v-64h-64v-64h-64v-64h-64v-64h64v-64h64v-64h64v-64h64v-64h64v-64h64v-64h64v-128h-64v-64h-64v-64h-64v-64h-64v-64h-64v-64h-64v-64h-64v-64h-1536zM704 448h576 v320h-576v-320zM704 1216h576v320h-576v-320z" />
<glyph unicode="c" horiz-adv-x="2048" d="M0 448v1088h64v64h64v64h64v64h64v64h64v64h64v64h64v64h1536v-448h-1280v-1088h1280v-448h-1536v64h-64v64h-64v64h-64v64h-64v64h-64v64h-64v64h-64z" />
<glyph unicode="d" horiz-adv-x="2048" d="M0 0v1984h1536v-64h64v-64h64v-64h64v-64h64v-64h64v-64h64v-64h64v-1088h-64v-64h-64v-64h-64v-64h-64v-64h-64v-64h-64v-64h-64v-64h-1536zM704 448h576v1088h-576v-1088z" />
<glyph unicode="e" horiz-adv-x="2048" d="M0 0v1984h1984v-448h-1280v-320h832v-448h-832v-320h1280v-448h-1984z" />
<glyph unicode="f" horiz-adv-x="2048" d="M0 0v1984h1984v-448h-1280v-320h832v-448h-832v-768h-704z" />
<glyph unicode="g" horiz-adv-x="2048" d="M0 448v1088h64v64h64v64h64v64h64v64h64v64h64v64h64v64h1536v-448h-1280v-1088h576v320h-448v448h1152v-1216h-1536v64h-64v64h-64v64h-64v64h-64v64h-64v64h-64v64h-64z" />
<glyph unicode="h" horiz-adv-x="2048" d="M0 0v1984h704v-768h576v768h704v-1984h-704v768h-576v-768h-704z" />
<glyph unicode="i" d="M0 0v1984h960v-1984h-960z" />
<glyph unicode="j" horiz-adv-x="2048" d="M0 448v512h704v-512h576v1536h704v-1536h-64v-64h-64v-64h-64v-64h-64v-64h-64v-64h-64v-64h-64v-64h-1088v64h-64v64h-64v64h-64v64h-64v64h-64v64h-64v64h-64z" />
<glyph unicode="k" horiz-adv-x="2048" d="M0 0v1984h704v-768h576v768h704v-576h-64v-64h-64v-64h-64v-64h-64v-64h-64v-64h-64v-64h-64v-64h64v-64h64v-64h64v-64h64v-64h64v-64h64v-64h64v-576h-704v768h-576v-768h-704z" />
<glyph unicode="l" horiz-adv-x="2048" d="M0 0v1984h704v-1536h1280v-448h-1984z" />
<glyph unicode="m" horiz-adv-x="2048" d="M0 0v1984h512v-64h64v-64h64v-64h64v-64h64v-64h64v-64h64v-64h64v-64h64v64h64v64h64v64h64v64h64v64h64v64h64v64h64v64h512v-1984h-704v1216h-64v-64h-64v-64h-64v-64h-64v-64h-64v64h-64v64h-64v64h-64v64h-64v-1216h-704z" />
<glyph unicode="n" horiz-adv-x="2048" d="M0 0v1984h512v-64h64v-64h64v-64h64v-64h64v-64h64v-64h64v-64h64v-64h64v-64h64v-64h64v-64h64v-64h64v768h704v-1984h-704v704h-66v64h-64v64h-64v64h-64v64h-64v64h-64v64h-64v64h-64v64h-62v-1216h-704z" />
<glyph unicode="o" horiz-adv-x="2048" d="M0 448v1088h64v64h64v64h64v64h64v64h64v64h64v64h64v64h1088v-64h64v-64h64v-64h64v-64h64v-64h64v-64h64v-64h64v-1088h-64v-64h-64v-64h-64v-64h-64v-64h-64v-64h-64v-64h-64v-64h-1088v64h-64v64h-64v64h-64v64h-64v64h-64v64h-64v64h-64zM704 448h576v1088h-576 v-1088z" />
<glyph unicode="p" horiz-adv-x="2048" d="M0 0v1984h1536v-64h64v-64h64v-64h64v-64h64v-64h64v-64h64v-64h64v-576h-64v-64h-64v-64h-64v-64h-64v-64h-64v-64h-64v-64h-64v-64h-832v-512h-704zM704 960h576v576h-576v-576z" />
<glyph unicode="q" horiz-adv-x="2176" d="M0 448v1088h64v64h64v64h64v64h64v64h64v64h64v64h64v64h1088v-64h64v-64h64v-64h64v-64h64v-64h64v-64h64v-64h64v-1088h128v-448h-1664v64h-64v64h-64v64h-64v64h-64v64h-64v64h-64v64h-64zM704 448h576v1088h-576v-1088z" />
<glyph unicode="r" horiz-adv-x="2048" d="M0 0v1984h1536v-64h64v-64h64v-64h64v-64h64v-64h64v-64h64v-64h64v-576h-64v-64h-64v-64h-64v-64h-64v-128h64v-64h64v-64h64v-64h64v-448h-512v64h-64v64h-64v64h-64v64h-64v64h-64v64h-64v64h-64v64h-320v-512h-704zM704 960h576v576h-576v-576z" />
<glyph unicode="s" horiz-adv-x="2048" d="M0 0v448h1280v320h-832v64h-64v64h-64v64h-64v64h-64v64h-64v64h-64v64h-64v320h64v64h64v64h64v64h64v64h64v64h64v64h64v64h1536v-448h-1280v-320h832v-64h64v-64h64v-64h64v-64h64v-64h64v-64h64v-64h64v-320h-64v-64h-64v-64h-64v-64h-64v-64h-64v-64h-64v-64h-64 v-64h-1536z" />
<glyph unicode="t" horiz-adv-x="2048" d="M0 1536v448h1984v-448h-640v-1536h-704v1536h-640z" />
<glyph unicode="u" horiz-adv-x="2048" d="M0 448v1536h704v-1536h576v1536h704v-1536h-64v-64h-64v-64h-64v-64h-64v-64h-64v-64h-64v-64h-64v-64h-1088v64h-64v64h-64v64h-64v64h-64v64h-64v64h-64v64h-64z" />
<glyph unicode="v" horiz-adv-x="2048" d="M0 0v1984h704v-1536h576v1536h704v-1536h-64v-64h-64v-64h-64v-64h-64v-64h-64v-64h-64v-64h-64v-64h-1536z" />
<glyph unicode="w" horiz-adv-x="2048" d="M0 0v1984h704v-1216h64v64h64v64h64v64h64v64h64v-64h64v-64h64v-64h64v-64h64v1216h704v-1984h-512v64h-64v64h-64v64h-64v64h-64v64h-64v64h-64v64h-64v64h-64v-64h-64v-64h-64v-64h-64v-64h-64v-64h-64v-64h-64v-64h-64v-64h-512z" />
<glyph unicode="x" horiz-adv-x="2048" d="M0 0v576h64v64h64v64h64v64h64v64h64v64h64v64h64v64h-64v64h-64v64h-64v64h-64v64h-64v64h-64v64h-64v576h704v-768h576v768h704v-576h-64v-64h-64v-64h-64v-64h-64v-64h-64v-64h-64v-64h-64v-64h64v-64h64v-64h64v-64h64v-64h64v-64h64v-64h64v-576h-704v768h-576v-768 h-704z" />
<glyph unicode="y" horiz-adv-x="2048" d="M0 1408v576h704v-768h576v768h704v-576h-64v-64h-64v-64h-64v-64h-64v-64h-64v-64h-64v-64h-64v-64h-192v-960h-704v960h-192v64h-64v64h-64v64h-64v64h-64v64h-64v64h-64v64h-64z" />
<glyph unicode="z" horiz-adv-x="2048" d="M0 0v448h64v64h64v64h64v64h64v64h64v64h64v64h64v64h64v64h64v64h64v64h64v64h64v64h64v64h64v64h64v64h64v64h64v64h-1088v448h1984v-448h-64v-64h-64v-64h-64v-64h-64v-64h-64v-64h-64v-64h-64v-64h-64v-64h-64v-64h-64v-64h-64v-64h-64v-64h-64v-64h-64v-64h-64v-64 h-64v-64h-64v-64h1088v-448h-1984z" />
<glyph unicode="{" />
<glyph unicode="|" />
<glyph unicode="}" />
<glyph unicode="~" />
<glyph unicode="&#xa0;" />
<glyph unicode="&#xa1;" />
<glyph unicode="&#xa2;" />
<glyph unicode="&#xa3;" />
<glyph unicode="&#xa4;" />
<glyph unicode="&#xa5;" />
<glyph unicode="&#xa6;" />
<glyph unicode="&#xa7;" />
<glyph unicode="&#xa8;" />
<glyph unicode="&#xa9;" />
<glyph unicode="&#xaa;" />
<glyph unicode="&#xab;" />
<glyph unicode="&#xac;" />
<glyph unicode="&#xad;" />
<glyph unicode="&#xae;" />
<glyph unicode="&#xaf;" />
<glyph unicode="&#xb0;" />
<glyph unicode="&#xb1;" />
<glyph unicode="&#xb2;" />
<glyph unicode="&#xb3;" />
<glyph unicode="&#xb4;" />
<glyph unicode="&#xb5;" />
<glyph unicode="&#xb6;" />
<glyph unicode="&#xb7;" />
<glyph unicode="&#xb8;" />
<glyph unicode="&#xb9;" />
<glyph unicode="&#xba;" />
<glyph unicode="&#xbb;" />
<glyph unicode="&#xbc;" />
<glyph unicode="&#xbd;" />
<glyph unicode="&#xbe;" />
<glyph unicode="&#xbf;" />
<glyph unicode="&#xc0;" />
<glyph unicode="&#xc1;" />
<glyph unicode="&#xc2;" />
<glyph unicode="&#xc3;" />
<glyph unicode="&#xc4;" />
<glyph unicode="&#xc5;" />
<glyph unicode="&#xc6;" />
<glyph unicode="&#xc7;" />
<glyph unicode="&#xc8;" />
<glyph unicode="&#xc9;" />
<glyph unicode="&#xca;" />
<glyph unicode="&#xcb;" />
<glyph unicode="&#xcc;" />
<glyph unicode="&#xcd;" />
<glyph unicode="&#xce;" />
<glyph unicode="&#xcf;" />
<glyph unicode="&#xd0;" />
<glyph unicode="&#xd1;" />
<glyph unicode="&#xd2;" />
<glyph unicode="&#xd3;" />
<glyph unicode="&#xd4;" />
<glyph unicode="&#xd5;" />
<glyph unicode="&#xd6;" />
<glyph unicode="&#xd7;" />
<glyph unicode="&#xd8;" />
<glyph unicode="&#xd9;" />
<glyph unicode="&#xda;" />
<glyph unicode="&#xdb;" />
<glyph unicode="&#xdc;" />
<glyph unicode="&#xdd;" />
<glyph unicode="&#xde;" />
<glyph unicode="&#xdf;" />
<glyph unicode="&#xe0;" />
<glyph unicode="&#xe1;" />
<glyph unicode="&#xe2;" />
<glyph unicode="&#xe3;" />
<glyph unicode="&#xe4;" />
<glyph unicode="&#xe5;" />
<glyph unicode="&#xe6;" />
<glyph unicode="&#xe7;" />
<glyph unicode="&#xe8;" />
<glyph unicode="&#xe9;" />
<glyph unicode="&#xea;" />
<glyph unicode="&#xeb;" />
<glyph unicode="&#xec;" />
<glyph unicode="&#xed;" />
<glyph unicode="&#xee;" />
<glyph unicode="&#xef;" />
<glyph unicode="&#xf0;" />
<glyph unicode="&#xf1;" />
<glyph unicode="&#xf2;" />
<glyph unicode="&#xf3;" />
<glyph unicode="&#xf4;" />
<glyph unicode="&#xf5;" />
<glyph unicode="&#xf6;" />
<glyph unicode="&#xf7;" />
<glyph unicode="&#xf8;" />
<glyph unicode="&#xf9;" />
<glyph unicode="&#xfa;" />
<glyph unicode="&#xfb;" />
<glyph unicode="&#xfc;" />
<glyph unicode="&#xfd;" />
<glyph unicode="&#xfe;" />
<glyph unicode="&#xff;" />
<glyph unicode="&#x152;" />
<glyph unicode="&#x153;" />
<glyph unicode="&#x178;" />
<glyph unicode="&#x2c6;" />
<glyph unicode="&#x2dc;" />
<glyph unicode="&#x2000;" horiz-adv-x="992" />
<glyph unicode="&#x2001;" horiz-adv-x="1984" />
<glyph unicode="&#x2002;" horiz-adv-x="992" />
<glyph unicode="&#x2003;" horiz-adv-x="1984" />
<glyph unicode="&#x2004;" horiz-adv-x="661" />
<glyph unicode="&#x2005;" horiz-adv-x="496" />
<glyph unicode="&#x2006;" horiz-adv-x="330" />
<glyph unicode="&#x2007;" horiz-adv-x="330" />
<glyph unicode="&#x2008;" horiz-adv-x="248" />
<glyph unicode="&#x2009;" horiz-adv-x="396" />
<glyph unicode="&#x200a;" horiz-adv-x="110" />
<glyph unicode="&#x2010;" />
<glyph unicode="&#x2011;" />
<glyph unicode="&#x2012;" />
<glyph unicode="&#x2013;" />
<glyph unicode="&#x2014;" />
<glyph unicode="&#x2018;" />
<glyph unicode="&#x2019;" />
<glyph unicode="&#x201a;" />
<glyph unicode="&#x201c;" />
<glyph unicode="&#x201d;" />
<glyph unicode="&#x201e;" />
<glyph unicode="&#x2022;" />
<glyph unicode="&#x2026;" />
<glyph unicode="&#x202f;" horiz-adv-x="396" />
<glyph unicode="&#x2039;" />
<glyph unicode="&#x203a;" />
<glyph unicode="&#x205f;" horiz-adv-x="496" />
<glyph unicode="&#x20ac;" />
<glyph unicode="&#x2122;" />
<glyph unicode="&#x25fc;" horiz-adv-x="1980" d="M0 0v1980h1980v-1980h-1980z" />
</font>
</defs>
</svg>
